<?xml version="1.0" encoding="UTF-8"?>
<svg id="TEXT" xmlns="http://www.w3.org/2000/svg" xmlns:xlink="http://www.w3.org/1999/xlink" viewBox="0 0 323.65 65.87">
  <defs>
    <linearGradient id="linear-gradient" x1="11.43" y1="1.18" x2="61.75" y2="71.62" gradientUnits="userSpaceOnUse">
      <stop offset="0" stop-color="#ffb83d"/>
      <stop offset="1" stop-color="#1200fc"/>
    </linearGradient>
    <linearGradient id="linear-gradient-2" x1="104.86" y1="-5.34" x2="205.88" y2="105.15" xlink:href="#linear-gradient"/>
    <linearGradient id="linear-gradient-3" x1="104.86" y1="-5.34" x2="205.88" y2="105.15" xlink:href="#linear-gradient"/>
    <linearGradient id="linear-gradient-4" x1="104.86" y1="-5.34" x2="205.88" y2="105.15" xlink:href="#linear-gradient"/>
    <linearGradient id="linear-gradient-5" x1="104.86" y1="-5.34" x2="205.88" y2="105.15" xlink:href="#linear-gradient"/>
    <linearGradient id="linear-gradient-6" x1="104.86" y1="-5.34" x2="205.88" y2="105.15" xlink:href="#linear-gradient"/>
    <linearGradient id="linear-gradient-7" x1="238.19" y1="-.68" x2="293.13" y2="76.23" xlink:href="#linear-gradient"/>
    <linearGradient id="linear-gradient-8" x1="238.19" y1="-.68" x2="293.13" y2="76.23" xlink:href="#linear-gradient"/>
    <linearGradient id="linear-gradient-9" x1="238.19" y1="-.68" x2="293.13" y2="76.23" xlink:href="#linear-gradient"/>
    <linearGradient id="linear-gradient-10" x1="238.19" y1="-.68" x2="293.13" y2="76.23" xlink:href="#linear-gradient"/>
  </defs>
  <path d="m37.05,0C16.59,0,0,16.59,0,37.05c0,11.64,5.37,22.03,13.77,28.82l2.54-12.54c-5.12-5.42-7.6-11.45-8.49-13.71-.73.7-1.23,1.62-1.37,2.68-.31-.58-.45-1.25-.37-1.94.21-1.88,1.97-3.24,3.93-3.04.89.09,1.67.5,2.24,1.09-.18-.04-.37-.07-.55-.09-.85-.09-1.67.04-2.41.35,1.52,2.83,7.13,11.71,19.18,15.04,5.55,1.54,11.47,1.54,17.02,0,12.04-3.33,17.66-12.21,19.18-15.04-.73-.31-1.56-.44-2.41-.35-.19.02-.37.05-.55.09.56-.59,1.34-1,2.24-1.09,1.96-.21,3.71,1.16,3.93,3.04.08.7-.06,1.36-.37,1.94-.14-1.05-.64-1.98-1.37-2.68-.88,2.24-3.32,8.18-8.35,13.56l2.57,12.69c8.4-6.79,13.77-17.18,13.77-28.82C74.1,16.59,57.52,0,37.05,0Zm0,13.88c5.1,0,9.25,5.11,9.25,11.4h-3.39c0-4.41-2.63-8-5.85-8s-5.85,3.59-5.85,8h-3.39c0-6.28,4.15-11.4,9.25-11.4Zm7.97,37.35c-2.62.72-5.33,1.09-8.06,1.09s-5.44-.37-8.06-1.09c-4.71-1.3-8.37-3.5-11.16-5.82l3.7-18.26h31.2l3.68,18.13c-2.8,2.36-6.51,4.61-11.3,5.94Z" style="fill: url(#linear-gradient);"/>
  <g>
    <g>
      <g>
        <path d="m92.41,51.47c-2.12-.74-3.76-1.72-4.92-2.94l1.29-2.54c1.13,1.13,2.63,2.04,4.5,2.74,1.87.7,3.8,1.05,5.79,1.05,2.79,0,4.88-.51,6.28-1.54,1.4-1.03,2.09-2.35,2.09-3.99,0-1.25-.38-2.24-1.14-2.98-.76-.74-1.69-1.31-2.78-1.71-1.1-.4-2.63-.84-4.59-1.31-2.35-.59-4.22-1.17-5.61-1.71-1.4-.55-2.59-1.39-3.59-2.52-1-1.13-1.49-2.66-1.49-4.59,0-1.57.42-3.01,1.25-4.3.83-1.29,2.11-2.32,3.83-3.1,1.72-.77,3.86-1.16,6.41-1.16,1.78,0,3.53.25,5.23.74,1.71.49,3.18,1.17,4.43,2.03l-1.11,2.63c-1.31-.86-2.7-1.51-4.19-1.94-1.49-.43-2.94-.65-4.37-.65-2.73,0-4.79.53-6.17,1.58-1.38,1.05-2.07,2.41-2.07,4.08,0,1.25.38,2.25,1.14,3.01s1.71,1.34,2.85,1.74c1.14.4,2.68.84,4.61,1.31,2.29.56,4.13,1.12,5.55,1.67,1.41.55,2.61,1.38,3.59,2.49.98,1.11,1.47,2.62,1.47,4.52,0,1.57-.42,3.01-1.27,4.3-.85,1.29-2.15,2.32-3.9,3.07-1.75.76-3.91,1.14-6.46,1.14-2.32,0-4.54-.37-6.66-1.11Z" style="fill: #fff;"/>
        <path d="m153.35,31.25c1.68,1.69,2.52,4.19,2.52,7.48v13.59h-3.16v-13.27c0-2.43-.59-4.29-1.76-5.57-1.17-1.28-2.83-1.92-4.97-1.92-2.44,0-4.35.75-5.75,2.25-1.4,1.5-2.09,3.57-2.09,6.21v12.29h-3.16v-13.27c0-2.43-.59-4.29-1.76-5.57-1.17-1.28-2.84-1.92-5.01-1.92-2.41,0-4.31.75-5.72,2.25-1.41,1.5-2.12,3.57-2.12,6.21v12.29h-3.16v-23.43h3.03v4.28c.83-1.43,1.99-2.52,3.47-3.3,1.48-.77,3.19-1.16,5.12-1.16s3.66.42,5.1,1.25c1.44.83,2.52,2.06,3.23,3.7.86-1.54,2.1-2.75,3.72-3.63,1.62-.88,3.47-1.31,5.55-1.31,2.94,0,5.25.85,6.93,2.54Z" style="fill: #fff;"/>
        <path d="m164.41,23.1c-.45-.45-.67-.98-.67-1.6s.22-1.11.67-1.56,1-.67,1.65-.67,1.2.22,1.65.65c.45.43.67.94.67,1.54,0,.65-.22,1.2-.67,1.65-.45.45-1,.67-1.65.67s-1.2-.22-1.65-.67Zm.04,5.79h3.16v23.43h-3.16v-23.43Z" style="fill: #fff;"/>
        <path d="m176.44,19.27h3.16v33.05h-3.16V19.27Z" style="fill: #fff;"/>
        <path d="m208.82,41.59h-19.6c.18,2.43,1.11,4.4,2.81,5.9,1.69,1.5,3.83,2.25,6.41,2.25,1.46,0,2.79-.26,4.01-.78,1.22-.52,2.27-1.28,3.16-2.29l1.78,2.05c-1.04,1.25-2.34,2.2-3.9,2.85-1.56.65-3.27.98-5.14.98-2.41,0-4.54-.51-6.39-1.54-1.86-1.02-3.3-2.44-4.34-4.25-1.04-1.81-1.56-3.86-1.56-6.15s.5-4.33,1.49-6.15c1-1.81,2.36-3.22,4.1-4.23s3.69-1.51,5.86-1.51,4.11.5,5.83,1.51c1.72,1.01,3.07,2.41,4.05,4.21.98,1.8,1.47,3.85,1.47,6.17l-.04.98Zm-16.99-8c-1.53,1.44-2.4,3.32-2.61,5.63h16.61c-.21-2.32-1.08-4.19-2.61-5.63-1.53-1.44-3.44-2.16-5.72-2.16s-4.15.72-5.68,2.16Z" style="fill: #fff;"/>
      </g>
      <g>
        <path d="m92.41,51.47c-2.12-.74-3.76-1.72-4.92-2.94l1.29-2.54c1.13,1.13,2.63,2.04,4.5,2.74,1.87.7,3.8,1.05,5.79,1.05,2.79,0,4.88-.51,6.28-1.54,1.4-1.03,2.09-2.35,2.09-3.99,0-1.25-.38-2.24-1.14-2.98-.76-.74-1.69-1.31-2.78-1.71-1.1-.4-2.63-.84-4.59-1.31-2.35-.59-4.22-1.17-5.61-1.71-1.4-.55-2.59-1.39-3.59-2.52-1-1.13-1.49-2.66-1.49-4.59,0-1.57.42-3.01,1.25-4.3.83-1.29,2.11-2.32,3.83-3.1,1.72-.77,3.86-1.16,6.41-1.16,1.78,0,3.53.25,5.23.74,1.71.49,3.18,1.17,4.43,2.03l-1.11,2.63c-1.31-.86-2.7-1.51-4.19-1.94-1.49-.43-2.94-.65-4.37-.65-2.73,0-4.79.53-6.17,1.58-1.38,1.05-2.07,2.41-2.07,4.08,0,1.25.38,2.25,1.14,3.01s1.71,1.34,2.85,1.74c1.14.4,2.68.84,4.61,1.31,2.29.56,4.13,1.12,5.55,1.67,1.41.55,2.61,1.38,3.59,2.49.98,1.11,1.47,2.62,1.47,4.52,0,1.57-.42,3.01-1.27,4.3-.85,1.29-2.15,2.32-3.9,3.07-1.75.76-3.91,1.14-6.46,1.14-2.32,0-4.54-.37-6.66-1.11Z" style="fill: url(#linear-gradient-2);"/>
        <path d="m153.35,31.25c1.68,1.69,2.52,4.19,2.52,7.48v13.59h-3.16v-13.27c0-2.43-.59-4.29-1.76-5.57-1.17-1.28-2.83-1.92-4.97-1.92-2.44,0-4.35.75-5.75,2.25-1.4,1.5-2.09,3.57-2.09,6.21v12.29h-3.16v-13.27c0-2.43-.59-4.29-1.76-5.57-1.17-1.28-2.84-1.92-5.01-1.92-2.41,0-4.31.75-5.72,2.25-1.41,1.5-2.12,3.57-2.12,6.21v12.29h-3.16v-23.43h3.03v4.28c.83-1.43,1.99-2.52,3.47-3.3,1.48-.77,3.19-1.16,5.12-1.16s3.66.42,5.1,1.25c1.44.83,2.52,2.06,3.23,3.7.86-1.54,2.1-2.75,3.72-3.63,1.62-.88,3.47-1.31,5.55-1.31,2.94,0,5.25.85,6.93,2.54Z" style="fill: url(#linear-gradient-3);"/>
        <path d="m164.41,23.1c-.45-.45-.67-.98-.67-1.6s.22-1.11.67-1.56,1-.67,1.65-.67,1.2.22,1.65.65c.45.43.67.94.67,1.54,0,.65-.22,1.2-.67,1.65-.45.45-1,.67-1.65.67s-1.2-.22-1.65-.67Zm.04,5.79h3.16v23.43h-3.16v-23.43Z" style="fill: url(#linear-gradient-4);"/>
        <path d="m176.44,19.27h3.16v33.05h-3.16V19.27Z" style="fill: url(#linear-gradient-5);"/>
        <path d="m208.82,41.59h-19.6c.18,2.43,1.11,4.4,2.81,5.9,1.69,1.5,3.83,2.25,6.41,2.25,1.46,0,2.79-.26,4.01-.78,1.22-.52,2.27-1.28,3.16-2.29l1.78,2.05c-1.04,1.25-2.34,2.2-3.9,2.85-1.56.65-3.27.98-5.14.98-2.41,0-4.54-.51-6.39-1.54-1.86-1.02-3.3-2.44-4.34-4.25-1.04-1.81-1.56-3.86-1.56-6.15s.5-4.33,1.49-6.15c1-1.81,2.36-3.22,4.1-4.23s3.69-1.51,5.86-1.51,4.11.5,5.83,1.51c1.72,1.01,3.07,2.41,4.05,4.21.98,1.8,1.47,3.85,1.47,6.17l-.04.98Zm-16.99-8c-1.53,1.44-2.4,3.32-2.61,5.63h16.61c-.21-2.32-1.08-4.19-2.61-5.63-1.53-1.44-3.44-2.16-5.72-2.16s-4.15.72-5.68,2.16Z" style="fill: url(#linear-gradient-6);"/>
      </g>
    </g>
    <g>
      <g>
        <path d="m219,51.3c-2.03-.8-3.6-1.84-4.7-3.12l.8-1.07c1.04,1.19,2.49,2.16,4.34,2.92,1.86.76,3.84,1.14,5.95,1.14,3.12,0,5.47-.62,7.06-1.85,1.59-1.23,2.38-2.81,2.38-4.74,0-1.49-.42-2.68-1.25-3.59-.83-.91-1.86-1.59-3.07-2.05s-2.88-.94-4.99-1.45c-2.26-.56-4.07-1.11-5.43-1.65-1.37-.54-2.52-1.35-3.47-2.45-.95-1.1-1.42-2.57-1.42-4.41,0-1.45.39-2.79,1.16-4.01.77-1.22,1.95-2.19,3.54-2.92,1.59-.73,3.57-1.09,5.95-1.09,1.69,0,3.36.25,5.01.76,1.65.5,3.05,1.2,4.21,2.09l-.67,1.2c-1.22-.89-2.58-1.57-4.08-2.03-1.5-.46-2.98-.69-4.43-.69-3.03,0-5.32.63-6.88,1.89-1.56,1.26-2.34,2.86-2.34,4.79,0,1.51.42,2.73,1.27,3.63.85.91,1.89,1.6,3.12,2.07,1.23.47,2.89.96,4.97,1.47,2.26.56,4.07,1.11,5.43,1.63,1.37.52,2.52,1.32,3.45,2.41s1.4,2.53,1.4,4.34c0,1.46-.39,2.79-1.18,4.01-.79,1.22-2,2.18-3.63,2.9-1.63.71-3.65,1.07-6.06,1.07-2.26,0-4.4-.4-6.44-1.2Z" style="fill: #fff;"/>
        <path d="m261.43,31.54c1.66,1.68,2.5,4.08,2.5,7.19v13.59h-1.47v-13.5c0-2.73-.69-4.82-2.07-6.26-1.38-1.44-3.35-2.16-5.9-2.16-2.88,0-5.15.85-6.82,2.56-1.66,1.71-2.49,4-2.49,6.88v12.47h-1.47V19.27h1.47v15.46c.77-1.78,1.97-3.18,3.61-4.19,1.63-1.01,3.58-1.51,5.83-1.51,2.88,0,5.15.84,6.81,2.52Z" style="fill: #fff;"/>
        <path d="m276.5,50.96c-1.74-1-3.1-2.38-4.08-4.17-.98-1.78-1.47-3.8-1.47-6.06s.49-4.28,1.47-6.06c.98-1.78,2.34-3.17,4.08-4.16,1.74-.99,3.67-1.49,5.81-1.49s4.11.5,5.83,1.49c1.72,1,3.07,2.38,4.05,4.16.98,1.78,1.47,3.8,1.47,6.06s-.49,4.28-1.47,6.06c-.98,1.78-2.33,3.17-4.05,4.17-1.72,1-3.67,1.49-5.83,1.49s-4.08-.5-5.81-1.49Zm10.87-1.16c1.5-.88,2.68-2.1,3.54-3.67.86-1.57,1.29-3.37,1.29-5.39s-.43-3.81-1.29-5.37c-.86-1.56-2.04-2.78-3.54-3.65-1.5-.88-3.18-1.31-5.06-1.31s-3.56.44-5.06,1.31c-1.5.88-2.68,2.09-3.54,3.65-.86,1.56-1.29,3.35-1.29,5.37s.43,3.82,1.29,5.39c.86,1.57,2.04,2.8,3.54,3.67,1.5.88,3.18,1.31,5.06,1.31s3.56-.44,5.06-1.31Z" style="fill: #fff;"/>
        <path d="m318.08,30.52c1.72,1,3.08,2.39,4.08,4.19.99,1.8,1.49,3.82,1.49,6.08s-.5,4.27-1.49,6.04c-1,1.77-2.35,3.15-4.08,4.14-1.72,1-3.64,1.49-5.75,1.49-2.23,0-4.22-.56-5.99-1.69-1.77-1.13-3.08-2.67-3.94-4.63v14.83h-1.47v-31.76h1.42v6.32c.86-2.02,2.18-3.61,3.94-4.77s3.78-1.74,6.04-1.74c2.11,0,4.02.5,5.75,1.49Zm-.73,19.29c1.5-.88,2.68-2.09,3.54-3.65.86-1.56,1.29-3.35,1.29-5.37s-.43-3.82-1.29-5.39c-.86-1.57-2.04-2.8-3.54-3.67-1.5-.88-3.18-1.31-5.06-1.31s-3.56.44-5.06,1.31c-1.5.88-2.68,2.1-3.54,3.67-.86,1.57-1.29,3.37-1.29,5.39s.43,3.81,1.29,5.37c.86,1.56,2.04,2.78,3.54,3.65,1.5.88,3.18,1.31,5.06,1.31s3.56-.44,5.06-1.31Z" style="fill: #fff;"/>
      </g>
      <g>
        <path d="m219,51.3c-2.03-.8-3.6-1.84-4.7-3.12l.8-1.07c1.04,1.19,2.49,2.16,4.34,2.92,1.86.76,3.84,1.14,5.95,1.14,3.12,0,5.47-.62,7.06-1.85,1.59-1.23,2.38-2.81,2.38-4.74,0-1.49-.42-2.68-1.25-3.59-.83-.91-1.86-1.59-3.07-2.05s-2.88-.94-4.99-1.45c-2.26-.56-4.07-1.11-5.43-1.65-1.37-.54-2.52-1.35-3.47-2.45-.95-1.1-1.42-2.57-1.42-4.41,0-1.45.39-2.79,1.16-4.01.77-1.22,1.95-2.19,3.54-2.92,1.59-.73,3.57-1.09,5.95-1.09,1.69,0,3.36.25,5.01.76,1.65.5,3.05,1.2,4.21,2.09l-.67,1.2c-1.22-.89-2.58-1.57-4.08-2.03-1.5-.46-2.98-.69-4.43-.69-3.03,0-5.32.63-6.88,1.89-1.56,1.26-2.34,2.86-2.34,4.79,0,1.51.42,2.73,1.27,3.63.85.91,1.89,1.6,3.12,2.07,1.23.47,2.89.96,4.97,1.47,2.26.56,4.07,1.11,5.43,1.63,1.37.52,2.52,1.32,3.45,2.41s1.4,2.53,1.4,4.34c0,1.46-.39,2.79-1.18,4.01-.79,1.22-2,2.18-3.63,2.9-1.63.71-3.65,1.07-6.06,1.07-2.26,0-4.4-.4-6.44-1.2Z" style="fill: url(#linear-gradient-7);"/>
        <path d="m261.43,31.54c1.66,1.68,2.5,4.08,2.5,7.19v13.59h-1.47v-13.5c0-2.73-.69-4.82-2.07-6.26-1.38-1.44-3.35-2.16-5.9-2.16-2.88,0-5.15.85-6.82,2.56-1.66,1.71-2.49,4-2.49,6.88v12.47h-1.47V19.27h1.47v15.46c.77-1.78,1.97-3.18,3.61-4.19,1.63-1.01,3.58-1.51,5.83-1.51,2.88,0,5.15.84,6.81,2.52Z" style="fill: url(#linear-gradient-8);"/>
        <path d="m276.5,50.96c-1.74-1-3.1-2.38-4.08-4.17-.98-1.78-1.47-3.8-1.47-6.06s.49-4.28,1.47-6.06c.98-1.78,2.34-3.17,4.08-4.16,1.74-.99,3.67-1.49,5.81-1.49s4.11.5,5.83,1.49c1.72,1,3.07,2.38,4.05,4.16.98,1.78,1.47,3.8,1.47,6.06s-.49,4.28-1.47,6.06c-.98,1.78-2.33,3.17-4.05,4.17-1.72,1-3.67,1.49-5.83,1.49s-4.08-.5-5.81-1.49Zm10.87-1.16c1.5-.88,2.68-2.1,3.54-3.67.86-1.57,1.29-3.37,1.29-5.39s-.43-3.81-1.29-5.37c-.86-1.56-2.04-2.78-3.54-3.65-1.5-.88-3.18-1.31-5.06-1.31s-3.56.44-5.06,1.31c-1.5.88-2.68,2.09-3.54,3.65-.86,1.56-1.29,3.35-1.29,5.37s.43,3.82,1.29,5.39c.86,1.57,2.04,2.8,3.54,3.67,1.5.88,3.18,1.31,5.06,1.31s3.56-.44,5.06-1.31Z" style="fill: url(#linear-gradient-9);"/>
        <path d="m318.08,30.52c1.72,1,3.08,2.39,4.08,4.19.99,1.8,1.49,3.82,1.49,6.08s-.5,4.27-1.49,6.04c-1,1.77-2.35,3.15-4.08,4.14-1.72,1-3.64,1.49-5.75,1.49-2.23,0-4.22-.56-5.99-1.69-1.77-1.13-3.08-2.67-3.94-4.63v14.83h-1.47v-31.76h1.42v6.32c.86-2.02,2.18-3.61,3.94-4.77s3.78-1.74,6.04-1.74c2.11,0,4.02.5,5.75,1.49Zm-.73,19.29c1.5-.88,2.68-2.09,3.54-3.65.86-1.56,1.29-3.35,1.29-5.37s-.43-3.82-1.29-5.39c-.86-1.57-2.04-2.8-3.54-3.67-1.5-.88-3.18-1.31-5.06-1.31s-3.56.44-5.06,1.31c-1.5.88-2.68,2.1-3.54,3.67-.86,1.57-1.29,3.37-1.29,5.39s.43,3.81,1.29,5.37c.86,1.56,2.04,2.78,3.54,3.65,1.5.88,3.18,1.31,5.06,1.31s3.56-.44,5.06-1.31Z" style="fill: url(#linear-gradient-10);"/>
      </g>
    </g>
  </g>
</svg>